<svg xmlns="http://www.w3.org/2000/svg" xmlns:xlink="http://www.w3.org/1999/xlink" width="206.534" height="171.776" viewBox="0 0 206.534 171.776">
  <defs>
    <clipPath id="clip-path">
      <rect width="206.534" height="171.776" fill="none"/>
    </clipPath>
    <linearGradient id="linear-gradient" y1="0.5" x2="1" y2="0.5" gradientUnits="objectBoundingBox">
      <stop offset="0" stop-color="gray" stop-opacity="0.251"/>
      <stop offset="0.54" stop-color="gray" stop-opacity="0.122"/>
      <stop offset="1" stop-color="gray" stop-opacity="0.102"/>
    </linearGradient>
  </defs>
  <g id="undraw_personalization_triu" clip-path="url(#clip-path)">
    <path id="Path_906" data-name="Path 906" d="M215.224,52.969c-13.241-.46-25.851-4.734-37.893-9.411S153.363,33.7,140.439,31.222c-8.312-1.594-17.819-1.819-24.515,2.637-6.446,4.3-8.529,11.692-9.648,18.562-.843,5.168-1.338,10.608.97,15.444,1.6,3.359,4.448,6.182,6.416,9.4,6.847,11.195,2.007,25-5.411,35.931-3.478,5.129-7.518,10.025-10.2,15.479s-3.928,11.712-1.577,17.281c2.328,5.524,7.878,9.664,13.891,12.58,12.211,5.923,26.6,7.617,40.632,8.576,31.062,2.126,62.287,1.205,93.431.284,11.526-.342,23.1-.687,34.439-2.469,6.3-.99,12.8-2.559,17.369-6.352a14.546,14.546,0,0,0,3.351-19c-6.522-10.125-24.55-12.639-29.114-23.5-2.508-5.982.068-12.643,3.715-18.191,7.823-11.9,20.935-22.338,21.624-35.939.475-9.341-5.829-18.7-15.575-23.118-10.215-4.632-24.382-4.051-31.915,3.619C240.554,50.336,226.916,53.374,215.224,52.969Z" transform="translate(-95.226 -30.178)" fill="#ff6f00" opacity="0.1"/>
    <ellipse id="Ellipse_18" data-name="Ellipse 18" cx="62.187" cy="8.412" rx="62.187" ry="8.412" transform="translate(36.727 151.364)" fill="#ff6f00" opacity="0.1"/>
    <path id="Path_907" data-name="Path 907" d="M428.24,688.49s4.3-.687,6.874,2.349c0,0-1.89,1.489-5.957-.573Z" transform="translate(-360.111 -553.758)" fill="#ff6f00"/>
    <path id="Path_908" data-name="Path 908" d="M419.125,688.42s-2.741,3.392-1.4,7.13c0,0,2.234-.894,2.478-5.448Z" transform="translate(-351.455 -553.756)" fill="#ff6f00"/>
    <path id="Path_909" data-name="Path 909" d="M414,657.071s1.718-3.151,8.592,1.26a3.858,3.858,0,0,1-3.953,1.948C415.6,660.107,414.792,658.733,414,657.071Z" transform="translate(-348.785 -527.953)" fill="#ff6f00"/>
    <path id="Path_910" data-name="Path 910" d="M396.582,660.187s-3.566-.409-3.912,7.754a3.856,3.856,0,0,0,3.867-2.113C398.143,663.243,397.478,661.8,396.582,660.187Z" transform="translate(-331.818 -531.296)" fill="#ff6f00"/>
    <path id="Path_911" data-name="Path 911" d="M401.63,616.619s2-5.558,9.282-1.606c0,0-1.661,5.1-8.537,3.5Z" transform="translate(-338.945 -494.237)" fill="#ff6f00"/>
    <path id="Path_912" data-name="Path 912" d="M390.71,577.58s3.781-5.614,10.485-.409c0,0-2.349,5.27-9.912,2.406Z" transform="translate(-330.259 -463.507)" fill="#ff6f00"/>
    <path id="Path_913" data-name="Path 913" d="M386.79,540.221s4.411-5.155,11.047,0c0,0-4.184,4.525-11.047,1.318Z" transform="translate(-327.141 -434.053)" fill="#ff6f00"/>
    <path id="Path_914" data-name="Path 914" d="M383.43,501.963s4.468-5.387,10.829-.286c0,0-5.043,4.754-10.829,1.547Z" transform="translate(-324.469 -403.471)" fill="#ff6f00"/>
    <path id="Path_915" data-name="Path 915" d="M385.39,463.246s4.705-6.931,10.657-2.234c0,0-5.043,5.959-10.657,3.552Z" transform="translate(-326.028 -371.572)" fill="#ff6f00"/>
    <path id="Path_916" data-name="Path 916" d="M390.71,425.394s4.984-6.874,10.771-1.6c0,0-5.9,5.957-10.771,2.864Z" transform="translate(-330.259 -341.682)" fill="#ff6f00"/>
    <path id="Path_917" data-name="Path 917" d="M397.838,387.1s5.9-6.459,11.047-3.887c0,0-6.15,6.86-11.305,5.6Z" transform="translate(-335.724 -310.511)" fill="#ff6f00"/>
    <path id="Path_918" data-name="Path 918" d="M407.041,349.012s6.819-7.907,10.771-5.272c0,0-5.016,6.137-11.252,6.761Z" transform="translate(-342.867 -279.163)" fill="#ff6f00"/>
    <path id="Path_919" data-name="Path 919" d="M420.35,313.462s5.961-6.461,10.315-4.857c0,0-5.1,6.7-11.115,6.876Z" transform="translate(-353.199 -251.44)" fill="#ff6f00"/>
    <path id="Path_920" data-name="Path 920" d="M435.526,277.239s6.588-6.187,9.452-5.1c0,0-4.754,6.874-9.738,6.473Z" transform="translate(-365.679 -222.537)" fill="#ff6f00"/>
    <path id="Path_921" data-name="Path 921" d="M449.52,237.894s5.671-7.389,8.764-6.817c0,0-3.437,6.588-8.764,7.57Z" transform="translate(-377.038 -189.951)" fill="#ff6f00"/>
    <path id="Path_922" data-name="Path 922" d="M462.695,198.022s5.014-5.667,7.721-5.653c0,0-3.957,7.57-7.926,7.5Z" transform="translate(-387.354 -159.188)" fill="#ff6f00"/>
    <path id="Path_923" data-name="Path 923" d="M469.378,144.43l4.84-11.8s.243,10.667-5.458,13.989Z" transform="translate(-392.342 -111.67)" fill="#ff6f00"/>
    <path id="Path_924" data-name="Path 924" d="M481.253,85.275s.8-9.853.286-10.655c0,0,3.464,8.183-.319,15.008Z" transform="translate(-402.253 -65.528)" fill="#ff6f00"/>
    <path id="Path_925" data-name="Path 925" d="M368.561,625.282s-5.022-3.112-8.271,4.5c0,0,4.468,2.966,8.86-2.559Z" transform="translate(-306.063 -503.034)" fill="#ff6f00"/>
    <path id="Path_926" data-name="Path 926" d="M354.367,584.347s-6.158-2.809-9.147,5.139c0,0,4.759,3.273,9.707-3.13Z" transform="translate(-294.076 -470.591)" fill="#ff6f00"/>
    <path id="Path_927" data-name="Path 927" d="M342.437,542.531s-4.411-5.155-11.047,0c0,0,4.182,4.525,11.047,1.318Z" transform="translate(-283.075 -435.89)" fill="#ff6f00"/>
    <path id="Path_928" data-name="Path 928" d="M340.6,501.963s-4.47-5.387-10.829-.286c0,0,5.041,4.754,10.829,1.547Z" transform="translate(-281.787 -403.471)" fill="#ff6f00"/>
    <path id="Path_929" data-name="Path 929" d="M346.717,458.792s-3.134-7.764-9.947-4.425c0,0,3.682,6.886,9.671,5.714Z" transform="translate(-287.354 -366.922)" fill="#ff6f00"/>
    <path id="Path_930" data-name="Path 930" d="M353.665,418.93s-3.114-7.9-10.025-4.237c0,0,4.231,7.24,9.718,5.458Z" transform="translate(-292.819 -335.258)" fill="#ff6f00"/>
    <path id="Path_931" data-name="Path 931" d="M375.076,368.077s-1.227-8.662-6.946-9.437c0,0,1.213,9.133,6.182,11Z" transform="translate(-312.299 -291.443)" fill="#ff6f00"/>
    <path id="Path_932" data-name="Path 932" d="M389.347,329.7s-.481-10.434-5.217-10.8c0,0,.16,7.917,4.683,12.275Z" transform="translate(-325.025 -259.833)" fill="#ff6f00"/>
    <path id="Path_933" data-name="Path 933" d="M402.8,294.026s-1.414-8.674-5.933-9.736c0,0,.561,8.4,5.485,11.866Z" transform="translate(-335.159 -232.303)" fill="#ff6f00"/>
    <path id="Path_934" data-name="Path 934" d="M426.8,257.566s-.049-9.038-2.811-10.366c0,0-1.712,8.183,2.011,11.52Z" transform="translate(-356.42 -202.801)" fill="#ff6f00"/>
    <path id="Path_935" data-name="Path 935" d="M437.485,222.71s-.389-9.309-3.247-10.62c0,0-.98,7.365,2.817,11.227Z" transform="translate(-364.792 -174.874)" fill="#ff6f00"/>
    <path id="Path_936" data-name="Path 936" d="M454.849,187.265s-.018-7.57-2.06-9.345c0,0-2.029,8.294.994,10.867Z" transform="translate(-379.108 -147.695)" fill="#ff6f00"/>
    <path id="Path_937" data-name="Path 937" d="M459.929,139.5l-1.984-12.6s-2.7,10.325,2.079,14.873Z" transform="translate(-383.134 -107.112)" fill="#ff6f00"/>
    <path id="Path_938" data-name="Path 938" d="M453.077,90.691s-5.1-8.468-4.994-9.411c0,0,.54,8.879,6.956,13.3Z" transform="translate(-375.894 -70.825)" fill="#ff6f00"/>
    <path id="Path_939" data-name="Path 939" d="M448.249,64.5s-4.812-12.031-6.989-13.005a15.249,15.249,0,0,1,7.389,12.662Z" transform="translate(-370.468 -47.13)" fill="#ff6f00"/>
    <path id="Path_940" data-name="Path 940" d="M461.079,135.451l-.329-.1c4.061-13.243,5.076-21.686,2.854-23.8l.237-.25C466.194,113.532,465.241,121.877,461.079,135.451Z" transform="translate(-385.97 -94.704)" fill="#444053"/>
    <path id="Path_941" data-name="Path 941" d="M405.815,256.562l-.485-.172c.43-1.213.894-2.445,1.381-3.66,4.239-10.565,7.848-20.391,10.162-27.936l.423-.2c-2.318,7.559-5.861,17.764-10.106,28.341C406.7,254.134,406.242,255.361,405.815,256.562Z" transform="translate(-341.888 -184.817)" fill="#444053"/>
    <path id="Path_942" data-name="Path 942" d="M396.722,449.354a66.9,66.9,0,0,1-11.236-20.139,74.556,74.556,0,0,1-4.439-23.069c-.315-9.847,1.751-20.841,5.29-30.826l.385.45c-7.944,22.414-4.787,41.622-.6,53.191A66.236,66.236,0,0,0,397.234,448.9Z" transform="translate(-322.548 -304.71)" fill="#444053"/>
    <rect id="Rectangle_164" data-name="Rectangle 164" width="1.813" height="14.939" rx="0.906" transform="translate(131.506 59.292)" fill="#3a3768"/>
    <rect id="Rectangle_165" data-name="Rectangle 165" width="1.017" height="4.918" rx="0.508" transform="translate(71.271 47.588)" fill="#3a3768"/>
    <rect id="Rectangle_166" data-name="Rectangle 166" width="1.146" height="8.56" rx="0.573" transform="translate(71.234 56.594)" fill="#3a3768"/>
    <rect id="Rectangle_167" data-name="Rectangle 167" width="1.09" height="8.633" rx="0.545" transform="translate(71.253 68.149)" fill="#3a3768"/>
    <rect id="Rectangle_168" data-name="Rectangle 168" width="60.638" height="123.238" rx="30.319" transform="translate(71.846 31.336)" fill="#3a3768"/>
    <path id="Path_943" data-name="Path 943" d="M513.059,199H506.1v.837a3.965,3.965,0,0,1-3.967,3.965H480.015a3.965,3.965,0,0,1-3.967-3.965V199h-6.512a4.816,4.816,0,0,0-4.816,4.816V311.011a4.816,4.816,0,0,0,4.816,4.816h43.523a4.816,4.816,0,0,0,4.816-4.816V203.824A4.816,4.816,0,0,0,513.059,199Z" transform="translate(-389.128 -164.462)" fill="#ff6f00"/>
    <rect id="Rectangle_169" data-name="Rectangle 169" width="8.468" height="1.718" rx="0.859" transform="translate(96.316 35.017)" fill="#e6e8ec"/>
    <circle id="Ellipse_19" data-name="Ellipse 19" cx="0.976" cy="0.976" r="0.976" transform="translate(106.064 34.9)" fill="#e6e8ec"/>
    <path id="Path_944" data-name="Path 944" d="M785.7,156.843s-17.226-1.039-15.2,11.031a2.933,2.933,0,0,0,1.53,3.1s.031-.894,1.768-.589a8.082,8.082,0,0,0,1.872.09,3.9,3.9,0,0,0,2.287-.935h0s4.842-2,6.725-9.914c0,0,1.393-1.727,1.338-2.171l-2.907,1.242a5.184,5.184,0,0,1,.2,3.84s-.094-3.764-.653-3.682c-.113.016-1.51.726-1.51.726s1.708,3.652.419,6.307c0,0,.489-4.5-.953-6.043l-2.046,1.195s2,3.772.642,6.851c0,0,.348-4.722-1.074-6.561l-1.854,1.446s1.876,3.717.732,6.27c0,0-.149-5.5-1.133-5.91a11.394,11.394,0,0,0-1.87,2.017s1.285,2.7.487,4.124c0,0-.489-3.662-.89-3.682a12.159,12.159,0,0,0-1.784,4.092,8.816,8.816,0,0,1,1.393-4.321,4.871,4.871,0,0,0-2.475,1.281s.252-1.714,2.874-1.866a11.25,11.25,0,0,1,1.692-1.952,10.6,10.6,0,0,0-4.188.483s1.391-1.618,4.667-.882l1.831-1.5s-3.433-.469-4.889.049c0,0,1.676-1.432,5.383-.389l1.993-1.191a18.281,18.281,0,0,0-4.671-.409s1.841-.992,5.256.084l1.432-.64s-2.144-.421-2.772-.489-.661-.239-.661-.239a7.436,7.436,0,0,1,4.028.448A18.135,18.135,0,0,0,785.7,156.843Z" transform="translate(-632.222 -130.912)" fill="#ff6f00"/>
    <path id="Path_945" data-name="Path 945" d="M732.079,130.651s-7.774-.468-6.866,4.986a1.33,1.33,0,0,0,.691,1.4s.014-.409.8-.268a3.582,3.582,0,0,0,.845.041,1.751,1.751,0,0,0,1.033-.426h0s2.189-.9,3.04-4.48c0,0,.628-.779.6-.98l-1.313.561a2.36,2.36,0,0,1,.1,1.735s-.043-1.7-.295-1.661c-.051,0-.683.329-.683.329a3.879,3.879,0,0,1,.19,2.85s.221-2.034-.432-2.731l-.925.548a4.081,4.081,0,0,1,.291,3.1s.158-2.134-.485-2.964l-.837.655a4,4,0,0,1,.331,2.833s-.07-2.484-.513-2.672a5.13,5.13,0,0,0-.845.912s.581,1.228.221,1.864c0,0-.221-1.655-.409-1.663a5.507,5.507,0,0,0-.806,1.841,3.994,3.994,0,0,1,.63-1.952,2.2,2.2,0,0,0-1.119.579s.115-.775,1.3-.843a5.6,5.6,0,0,1,.765-.884,4.8,4.8,0,0,0-1.892.219,2.125,2.125,0,0,1,2.107-.4l.818-.675a7.061,7.061,0,0,0-2.209.022,2.689,2.689,0,0,1,2.432-.176l.9-.538a8.2,8.2,0,0,0-2.111-.182,3.243,3.243,0,0,1,2.375.037l.644-.288s-.97-.19-1.254-.221-.3-.108-.3-.108a3.353,3.353,0,0,1,1.821.2A8.331,8.331,0,0,0,732.079,130.651Z" transform="translate(-596.27 -110.088)" fill="#ff6f00"/>
    <rect id="Rectangle_170" data-name="Rectangle 170" width="42.338" height="89.861" transform="translate(80.997 46.273)" opacity="0.1"/>
    <path id="Path_946" data-name="Path 946" d="M532.227,518.275s-1-2.324-1.444-3.4a.977.977,0,0,0-1-.7l.018-.2.08-.968.016-.2c.771-.162,1.432-.288,1.432-.288l-.481-24.82a8,8,0,0,1-.7-1.841c-.245-.788-1.432-1.755-2.541-2.527-.174-.121-.344-.235-.512-.346a12.77,12.77,0,0,1,1.271-.937c.63-.366.839-2.455.839-2.455l-.1.2c.1-.2,0-5.538,0-5.538l-.368-5.536s-.262-6.581-2.308-8.306a12.512,12.512,0,0,0-4.63-2.328l-1.432-.368h0l-2.639-.677a3.384,3.384,0,0,1-.2-.381c-.027-.051-.051-.1-.076-.157a6.178,6.178,0,0,0,2.608-5.043,6.087,6.087,0,0,0-.08-.99.994.994,0,0,0-.035-.186,5.147,5.147,0,0,0,.614-.493,2.787,2.787,0,0,0,.749-.919h0a1.538,1.538,0,0,0,.07-.215.121.121,0,0,1,.012-.063.818.818,0,0,0,.025-.164v-.286a1.42,1.42,0,0,0-.02-.2.026.026,0,0,0,0-.012h0a3.517,3.517,0,0,0-.184-.7,8.327,8.327,0,0,1-.567-1.586,6.574,6.574,0,0,0-.3-1.989,1.773,1.773,0,0,0-1.246-.857,2.936,2.936,0,0,0-1.539.176,2.188,2.188,0,0,1-.759.2,1.585,1.585,0,0,1-.554-.135,8.226,8.226,0,0,1-1.719-.923,8.228,8.228,0,0,0-1.227-.8,1.661,1.661,0,0,0-1.416-.057c-.757.385-.9,1.457-1.6,1.929a3.181,3.181,0,0,1-1.7.315,1.764,1.764,0,0,0-1.536.673,1.942,1.942,0,0,0-.117,1.182l.012.139a.615.615,0,0,0,.012.149,3.758,3.758,0,0,1-.231,1.547,6.646,6.646,0,0,0-.8,2.25h0a1.568,1.568,0,0,0,.047.36,1.729,1.729,0,0,0,.057.174h0a7.609,7.609,0,0,0,.378.739l.018.033c.014.029.029.057.041.086s.037.078.051.117.016.039.022.057.027.076.037.115a1.1,1.1,0,0,1,.043.356,3.3,3.3,0,0,0-.039.469.344.344,0,0,0,.274.333.457.457,0,0,0,.237-.074,3.8,3.8,0,0,0,.522-.358,1.185,1.185,0,0,0,.012.2,6.19,6.19,0,0,0,1.86,3.852,1.052,1.052,0,0,1-.014.2,1.628,1.628,0,0,0-.014.223h0l-2.291.72s.012.041.037.11l-.241.1h0a17.231,17.231,0,0,0-3.253,1.62c-.327.237-.626.432-.894.593a5.114,5.114,0,0,0-2.12,2.568l-.031.078c-.2.469-1.207,3.656-1.207,3.656a13.268,13.268,0,0,0-.841,2.926s-1.207,3.811-.892,6.32c0,0-.945,3.6-.577,4.178a3.431,3.431,0,0,0,1.277,3.112c-.121.074-.252.153-.389.241-1.281.806-3.128,2.113-3.443,3.122a7.9,7.9,0,0,1-.7,1.841l-.5,24.781s.661.127,1.432.286l.016.2.08.966.018.2a.989.989,0,0,0-1,.7c-.448,1.07-1.432,3.392-1.432,3.392s-2.2,2.046-.867,3.944a1.365,1.365,0,0,0,.2.237c.959.871,3.005.313,4.46-.256a4.349,4.349,0,0,0,1.841-1.485.7.7,0,0,1,.491-.272,2.006,2.006,0,0,0,.914-.4,1.228,1.228,0,0,0,.5-1.023.152.152,0,0,1,0-.031l-.129-2.911s-.158-2.034-.659-1.9l-.129.031-.035-.2h0l-.068-.395-.035-.2h.278a12.184,12.184,0,0,1,.91-4.108c.841-1.809,1.393-16.418,1.393-16.418s10.407.17,10.755-.806h0c.2,0,.428,0,.64-.014.35.976,10.172,1.023,10.172,1.023s.558,14.626,1.4,16.436a8.349,8.349,0,0,1,.44,1.2h0a13.385,13.385,0,0,1,.473,2.907h.278l-.037.2-.067.393-.035.2-.133-.031c-.5-.129-.655,1.9-.655,1.9l-.133,2.93a1.189,1.189,0,0,0,.487,1.023,2.045,2.045,0,0,0,.931.409.684.684,0,0,1,.491.27,4.362,4.362,0,0,0,1.841,1.485c1.571.614,3.83,1.213,4.669.02C534.431,520.312,532.227,518.275,532.227,518.275ZM505.775,481.79Zm16.438-8.363a4.43,4.43,0,0,0,.734,1.514c.471.522.237,3.762.237,3.762a2.9,2.9,0,0,0-.548.088C522.274,476.636,521.941,474.245,522.213,473.426Z" transform="translate(-410.189 -357.056)" fill="url(#linear-gradient)"/>
    <path id="Path_947" data-name="Path 947" d="M419.771,755.6l-4.114.409-.115-1.377-.08-.947-.113-1.385,3.887.2.309,1.778.065.387h0Z" transform="translate(-330.376 -598.393)" fill="#8e6f7f"/>
    <path id="Path_948" data-name="Path 948" d="M566.213,753.31l-.113,1.383-.078.947-.117,1.377-4.116-.409.164-.931.063-.385.309-1.778Z" transform="translate(-446.857 -599.196)" fill="#8e6f7f"/>
    <path id="Path_949" data-name="Path 949" d="M557.831,650.107l-12.234.575q-.835.041-1.669,0l-11.688-.573V640.85h25.591Z" transform="translate(-442.835 -515.918)" fill="#5f5570"/>
    <path id="Path_950" data-name="Path 950" d="M557.831,650.107l-12.234.575q-.835.041-1.669,0l-11.688-.573V640.85h25.591Z" transform="translate(-442.835 -515.918)" opacity="0.1"/>
    <path id="Path_951" data-name="Path 951" d="M539.661,518.91a29.507,29.507,0,0,0-5.61,2.494c-.319.233-.614.426-.872.583a4.992,4.992,0,0,0-2.06,2.512c-.01.029-.021.053-.031.076-.2.46-1.176,3.58-1.176,3.58a12.984,12.984,0,0,0-.818,2.864c-.1,1.125,5.831,4.143,5.831,4.143s-2.864,6.24-1.585,7.825,19.947,2.353,19.537,0-1.125-6.24-.767-7.314l6.342-4.6s-.256-6.444-2.25-8.132a12.433,12.433,0,0,0-4.5-2.3l-3.971-1.023s-1.4,3.478-2.934,3.938S539.9,521.887,539.661,518.91Z" transform="translate(-440.332 -418.924)" fill="#eaeaf2"/>
    <path id="Path_952" data-name="Path 952" d="M590.419,547.54s-1.731,1.444-2.639,0c0,0-.818,2.443,0,3.261l-.031.166-.145.728-1.894,15.753,1.559,2.69,2.838-3.56-.229-14.73-.1-.845-.025-.2h.485S591.522,548.575,590.419,547.54Z" transform="translate(-485.366 -441.697)" opacity="0.1"/>
    <path id="Path_953" data-name="Path 953" d="M592.419,547.54s-1.731,1.444-2.639,0c0,0-.818,2.443,0,3.261l-.031.166-.145.728-1.894,15.753,1.559,2.69,2.838-3.56-.229-14.73-.1-.845-.025-.2h.485S593.522,548.575,592.419,547.54Z" transform="translate(-486.957 -441.697)" opacity="0.1"/>
    <path id="Path_954" data-name="Path 954" d="M495.861,545.5l-2.838,3.554-1.563-2.676,1.9-15.761.145-.728.033-.168.256-.663,1.714.663.025.2.1.845Z" transform="translate(-390.915 -420.823)" fill="#bc8487"/>
    <path id="Path_955" data-name="Path 955" d="M514.776,784.452a13.9,13.9,0,0,1-2.629-.268c-.428-.106-.964-.225-1.453-.329l-.115-1.385,3.887.2Z" transform="translate(-425.606 -628.565)" opacity="0.1"/>
    <path id="Path_956" data-name="Path 956" d="M522.7,650.661c-.34.955-10.483.788-10.483.788s-.544,14.321-1.362,16.094a12.031,12.031,0,0,0-.888,4.022,15.118,15.118,0,0,1-2.864-.272c-1.092-.272-2.864-.614-2.864-.614l.479-24.294a7.434,7.434,0,0,0,.681-1.792c.307-.988,2.107-2.269,3.353-3.069.7-.438,1.215-.724,1.215-.724l6.051.245,3.736.151S523.043,649.705,522.7,650.661Z" transform="translate(-420.563 -515.878)" fill="#5f5570"/>
    <path id="Path_957" data-name="Path 957" d="M515.743,794.838l-4.116.409-.117-1.377a1.228,1.228,0,0,1,.448.1c.751.54,2.9.11,3.623-.061h0Z" transform="translate(-426.346 -637.632)" opacity="0.1"/>
    <path id="Path_958" data-name="Path 958" d="M502.44,799.582a1.2,1.2,0,0,1-.493,1,1.954,1.954,0,0,1-.89.391.665.665,0,0,0-.477.266,4.27,4.27,0,0,1-1.8,1.455c-1.418.556-3.412,1.1-4.347.25a1.3,1.3,0,0,1-.2-.231c-1.3-1.866.845-3.862.845-3.862s.97-2.275,1.405-3.322a1.023,1.023,0,0,1,1.405-.589c.818.589,3.3.025,3.785-.1s.64,1.864.64,1.864l.131,2.85A.163.163,0,0,0,502.44,799.582Z" transform="translate(-412.266 -638.398)" fill="#bc8487"/>
    <path id="Path_959" data-name="Path 959" d="M662.336,783.48l-.115,1.383c-.489.1-1.023.223-1.455.329a13.934,13.934,0,0,1-2.627.27l.309-1.778Z" transform="translate(-542.978 -629.368)" opacity="0.1"/>
    <path id="Path_960" data-name="Path 960" d="M615.369,671.719s-1.772.342-2.864.614a15.118,15.118,0,0,1-2.864.272,11.993,11.993,0,0,0-.886-4.022c-.818-1.772-1.365-16.095-1.365-16.095s-9.57-.055-9.912-1.011,4.171-9.206,4.171-9.206l2.752-.143,5.239-.278a24.693,24.693,0,0,1,2.095,1.307,6.787,6.787,0,0,1,2.475,2.475,7.438,7.438,0,0,0,.681,1.792Z" transform="translate(-494.712 -516.713)" fill="#5f5570"/>
    <path id="Path_961" data-name="Path 961" d="M661.253,794.87l-.115,1.377-4.118-.409.164-.931c.726.174,2.864.6,3.621.061A1.229,1.229,0,0,1,661.253,794.87Z" transform="translate(-542.087 -638.428)" opacity="0.1"/>
    <path id="Path_962" data-name="Path 962" d="M657.816,795.93a1.023,1.023,0,0,1,1.408.589c.434,1.047,1.405,3.324,1.405,3.324s2.148,1.995.845,3.86c-.818,1.17-3.02.583-4.55-.018a4.243,4.243,0,0,1-1.8-1.455.667.667,0,0,0-.479-.266,2.007,2.007,0,0,1-.908-.409,1.17,1.17,0,0,1-.473-1l.129-2.864s.153-1.991.638-1.866S657,796.52,657.816,795.93Z" transform="translate(-539.099 -639.185)" fill="#bc8487"/>
    <path id="Path_963" data-name="Path 963" d="M587.949,513.121l-4.13,4.378-.115.123-.149-.088c-.863-.511-5.182-3.118-4.812-3.9a8.027,8.027,0,0,0,.389-2.175c0-.1.012-.19.02-.282.041-.632.051-1.123.051-1.123s7.774-1.33,7.467,0a2.6,2.6,0,0,0,.325,1.674c.078.153.164.3.248.436A6.742,6.742,0,0,0,587.949,513.121Z" transform="translate(-479.806 -411.408)" fill="#ffc4d0"/>
    <path id="Path_964" data-name="Path 964" d="M588.674,511.726a6.066,6.066,0,0,1-7.844-.55c.041-.632.051-1.123.051-1.123s7.774-1.33,7.467,0A2.633,2.633,0,0,0,588.674,511.726Z" transform="translate(-481.484 -411.408)" opacity="0.1"/>
    <path id="Path_965" data-name="Path 965" d="M584.024,472.04a6.07,6.07,0,0,1-12.119.577q-.025-.286-.025-.577a6.069,6.069,0,1,1,12.139,0Z" transform="translate(-474.365 -376.815)" fill="#ffc4d0"/>
    <path id="Path_966" data-name="Path 966" d="M584.011,470.855a1.453,1.453,0,0,1-1.142.309c-.937-.2-1.258-1.637-2.216-1.735s-1.594,1.227-2.563,1.2a2.97,2.97,0,0,1-1.154-.464,3.658,3.658,0,0,0-2.455-.278c-1.07.366-1.432,1.356-2.115,2.144a3.12,3.12,0,0,1-.383.37q-.025-.286-.025-.577a6.07,6.07,0,0,1,12.07-.97Z" transform="translate(-474.428 -376.6)" opacity="0.1"/>
    <path id="Path_967" data-name="Path 967" d="M570.53,454.468a2.953,2.953,0,0,0,1.154.464c.968.025,1.6-1.307,2.561-1.2s1.279,1.524,2.22,1.735a2.054,2.054,0,0,0,1.7-.769,2.707,2.707,0,0,0,.73-.9,2.27,2.27,0,0,0-.092-1.608,9.117,9.117,0,0,1-.552-1.553,6.438,6.438,0,0,0-.29-1.948,1.725,1.725,0,0,0-1.215-.839,2.864,2.864,0,0,0-1.5.17,2.121,2.121,0,0,1-.739.2,1.562,1.562,0,0,1-.542-.133,8.007,8.007,0,0,1-1.674-.9,7.839,7.839,0,0,0-1.193-.786,1.608,1.608,0,0,0-1.379-.055c-.737.376-.878,1.432-1.563,1.888a3.12,3.12,0,0,1-1.657.309,1.709,1.709,0,0,0-1.5.657,2.577,2.577,0,0,0-.09,1.442,3.7,3.7,0,0,1-.227,1.514c-.317.847-.962,1.682-.732,2.557.149.575.665,1.052.634,1.637a3.129,3.129,0,0,0-.039.456.338.338,0,0,0,.268.327.409.409,0,0,0,.229-.074,3.421,3.421,0,0,0,.9-.73c.691-.79,1.049-1.778,2.119-2.144A3.7,3.7,0,0,1,570.53,454.468Z" transform="translate(-468.021 -361.104)" fill="#8e6f7f"/>
    <path id="Path_968" data-name="Path 968" d="M594.913,650.282l-1.1.3-2.551.7a6.165,6.165,0,0,1-1.962.976c-1.561.395-2.57-.464-3.408-1.794a.873.873,0,0,1,.274-1.291,8.552,8.552,0,0,1,4.5-.959,3.368,3.368,0,0,0,1.553-.241,6.018,6.018,0,0,0,1-.475Z" transform="translate(-485.365 -521.207)" fill="#ffc4d0"/>
    <path id="Path_969" data-name="Path 969" d="M620.24,650.258l-1.1.3a5.1,5.1,0,0,0-1.585-2.615,6.016,6.016,0,0,0,1-.475Z" transform="translate(-510.692 -521.183)" opacity="0.1"/>
    <path id="Path_970" data-name="Path 970" d="M629.326,643.157c-.458.37-.847.708-.847.708s-5.319,1.667-6.342,3.764c0,0-.818-4.092-2.557-4.143a8.745,8.745,0,0,0,2.412-1.363l5.244-.274A24.273,24.273,0,0,1,629.326,643.157Z" transform="translate(-512.307 -516.713)" opacity="0.1"/>
    <path id="Path_971" data-name="Path 971" d="M627.656,569.85l1.176,1.739.358,5.421s.1,5.217,0,5.421l.1-.2s-.2,2.046-.818,2.4a21.481,21.481,0,0,0-1.995,1.555s-5.319,1.667-6.342,3.764c0,0-.818-4.092-2.557-4.143,0,0,2.608-1.023,2.557-1.688a15.462,15.462,0,0,0,2.148-2.25c.153-.46,1.15-.511,1.15-.511s.231-3.171-.229-3.682a4.322,4.322,0,0,1-.716-1.483Z" transform="translate(-510.716 -459.443)" fill="#eaeaf2"/>
    <path id="Path_972" data-name="Path 972" d="M589.3,658.745c-1.561.395-2.57-.464-3.408-1.794a.873.873,0,0,1,.274-1.291l.159.063S589.134,656.943,589.3,658.745Z" transform="translate(-485.365 -527.698)" opacity="0.1"/>
    <path id="Path_973" data-name="Path 973" d="M569.154,657.747c-1.841,2.557-5.268-1-5.524-1.714a1.572,1.572,0,0,0-.845-.677,9.128,9.128,0,0,0-1.585-.526l3.044-2.479.583.233,1.794.718S571,655.19,569.154,657.747Z" transform="translate(-465.87 -525.065)" fill="#ffc4d0"/>
    <path id="Path_974" data-name="Path 974" d="M564.811,652.583a3.06,3.06,0,0,0-2.046,2.772,9.128,9.128,0,0,0-1.585-.526l3.044-2.479Z" transform="translate(-465.854 -525.065)" opacity="0.1"/>
    <path id="Path_975" data-name="Path 975" d="M534.411,647.857s-4.91-3.887-7.263-5.575a5.757,5.757,0,0,1-.818-.708c.7-.438,1.215-.724,1.215-.724l6.052.245c.162.28.258.471.258.471l3.273,2.148C533.184,644.993,534.411,647.857,534.411,647.857Z" transform="translate(-438.134 -515.918)" opacity="0.1"/>
    <path id="Path_976" data-name="Path 976" d="M524.162,575.35l-.972.563a18.654,18.654,0,0,0-.869,6.189s-.921,3.529-.563,4.092c0,0-.46,1.892,1.892,3.58s7.263,5.575,7.263,5.575-1.227-2.864,2.711-4.143l-3.273-2.148s-1.1-2.181-2.148-2.66c0,0-.818-.818-.307-1.381a2.918,2.918,0,0,0,.921-1.739c0-.563.2-3.222.2-3.222l.614-2.864Z" transform="translate(-434.432 -463.818)" fill="#eaeaf2"/>
    <path id="Path_977" data-name="Path 977" d="M598.7,560.1H596.7a.261.261,0,0,1-.033-.037l.033-.168.256-.663,1.714.663Z" transform="translate(-494.084 -450.995)" opacity="0.1"/>
    <path id="Path_978" data-name="Path 978" d="M598.055,546.54s-1.731,1.444-2.639,0c0,0-.818,2.443,0,3.261h2.455S599.158,547.575,598.055,546.54Z" transform="translate(-492.797 -440.902)" fill="#bc8487"/>
    <path id="Path_979" data-name="Path 979" d="M607.576,523.35l2.578.665s-2.443,6.342-2.981,6.342l-3.093-1.483Z" transform="translate(-499.978 -422.456)" opacity="0.1"/>
    <path id="Path_980" data-name="Path 980" d="M606.744,523.095l-4.13,4.378-.115.123-.149-.088L605.961,522l.088.145A6.762,6.762,0,0,0,606.744,523.095Z" transform="translate(-498.602 -421.382)" opacity="0.1"/>
    <path id="Path_981" data-name="Path 981" d="M606.576,522.35l2.578.665s-2.443,6.342-2.981,6.342l-3.093-1.483Z" transform="translate(-499.182 -421.66)" fill="#eaeaf2"/>
    <path id="Path_982" data-name="Path 982" d="M571.064,519.91l-2.234.7s2.2,6.649,2.813,7.007l3.989-1.483Z" transform="translate(-471.939 -419.72)" opacity="0.1"/>
    <path id="Path_983" data-name="Path 983" d="M583.819,524.776l-.115.123s-5.37-3.12-4.961-3.989a8.027,8.027,0,0,0,.389-2.175v-.125Z" transform="translate(-479.807 -418.686)" opacity="0.1"/>
    <path id="Path_984" data-name="Path 984" d="M572.064,518.91l-2.234.7s2.2,6.649,2.813,7.007l3.989-1.483Z" transform="translate(-472.735 -418.924)" fill="#eaeaf2"/>
    <path id="Path_985" data-name="Path 985" d="M554.74,571.34a1.623,1.623,0,0,1,1.322,1.637c-.025,1.4.554-1.806.554-1.806Z" transform="translate(-460.732 -460.493)" opacity="0.1"/>
    <path id="Path_986" data-name="Path 986" d="M555.593,593a12.68,12.68,0,0,0,0,4.024c.374,1.911.342,2.557.632,2.66S555.593,593,555.593,593Z" transform="translate(-461.278 -477.857)" opacity="0.1"/>
    <path id="Path_987" data-name="Path 987" d="M637.723,592a.741.741,0,0,0-.614.955C637.281,593.811,637.723,592,637.723,592Z" transform="translate(-526.223 -477.061)" opacity="0.1"/>
    <path id="Path_988" data-name="Path 988" d="M525.91,626.652s4.384-.374,5.114.409S525.91,626.652,525.91,626.652Z" transform="translate(-437.8 -504.553)" opacity="0.1"/>
    <path id="Path_989" data-name="Path 989" d="M650.24,627.914s3.206-.395,3.957.151" transform="translate(-536.694 -505.518)" opacity="0.1"/>
    <path id="Path_990" data-name="Path 990" d="M656.58,631a10.232,10.232,0,0,1,2.353.307" transform="translate(-541.737 -508.083)" opacity="0.1"/>
    <path id="Path_991" data-name="Path 991" d="M658.41,634.321s1.739-.068,1.978.2" transform="translate(-543.193 -510.718)" opacity="0.1"/>
    <path id="Path_992" data-name="Path 992" d="M538.54,681.35s1.489.775,1.338,1.567S538.54,681.35,538.54,681.35Z" transform="translate(-447.846 -548.132)" opacity="0.1"/>
    <path id="Path_993" data-name="Path 993" d="M532.24,683.19s2.273,2.948,1.964,3.92S532.24,683.19,532.24,683.19Z" transform="translate(-442.835 -549.596)" opacity="0.1"/>
    <path id="Path_994" data-name="Path 994" d="M647.072,685.58s-1.125.927-1.095,1.692" transform="translate(-533.303 -551.497)" opacity="0.1"/>
    <path id="Path_995" data-name="Path 995" d="M524.33,774.85s0,.869,1.61,2.148" transform="translate(-436.543 -622.504)" opacity="0.1"/>
    <path id="Path_996" data-name="Path 996" d="M656.479,764.85a3.877,3.877,0,0,1-1.739,2.746" transform="translate(-540.274 -614.549)" opacity="0.1"/>
    <g id="Group_287" data-name="Group 287" transform="translate(95.884 88.488)" opacity="0.1">
      <path id="Path_997" data-name="Path 997" d="M568.631,463.14c0-.141-.025-.286-.037-.43a4.124,4.124,0,0,0,.029.937A3.8,3.8,0,0,0,568.631,463.14Z" transform="translate(-567.624 -462.71)"/>
      <path id="Path_998" data-name="Path 998" d="M564.589,486.06c.031-.593-.485-1.07-.634-1.637a.551.551,0,0,1-.016-.084,1.577,1.577,0,0,0,.016.7c.121.469.485.869.6,1.324C564.564,486.255,564.585,486.159,564.589,486.06Z" transform="translate(-563.907 -479.915)"/>
      <path id="Path_999" data-name="Path 999" d="M581.429,479.035a2.726,2.726,0,0,1-.73.9,2.059,2.059,0,0,1-1.7.769c-.939-.2-1.262-1.637-2.22-1.735s-1.594,1.227-2.561,1.2a2.971,2.971,0,0,1-1.154-.464,3.657,3.657,0,0,0-2.455-.278c-1.07.366-1.432,1.356-2.119,2.144a3.451,3.451,0,0,1-.9.732.434.434,0,0,1-.231.072.284.284,0,0,1-.229-.184v.014a3.141,3.141,0,0,0-.039.458.337.337,0,0,0,.268.325.434.434,0,0,0,.231-.072,3.452,3.452,0,0,0,.9-.732c.691-.788,1.049-1.778,2.119-2.144a3.646,3.646,0,0,1,2.455.278,2.921,2.921,0,0,0,1.154.464c.968.025,1.6-1.307,2.561-1.2s1.281,1.522,2.22,1.735a2.054,2.054,0,0,0,1.7-.769,2.726,2.726,0,0,0,.73-.9,1.726,1.726,0,0,0,.088-.929A1.445,1.445,0,0,1,581.429,479.035Z" transform="translate(-566.439 -475.445)"/>
    </g>
    <path id="Path_1000" data-name="Path 1000" d="M500,813.952s1.671-.515,2.365.463" transform="translate(-417.19 -653.498)" opacity="0.1"/>
    <path id="Path_1001" data-name="Path 1001" d="M678.917,815.423s-2.768-.162-2.66.587" transform="translate(-557.387 -654.764)" opacity="0.1"/>
    <ellipse id="Ellipse_20" data-name="Ellipse 20" cx="5.509" cy="0.931" rx="5.509" ry="0.931" transform="translate(171.285 157.281)" fill="#ff6f00" opacity="0.1"/>
    <ellipse id="Ellipse_21" data-name="Ellipse 21" cx="5.509" cy="0.931" rx="5.509" ry="0.931" transform="translate(13.127 164.92)" fill="#ff6f00" opacity="0.1"/>
    <ellipse id="Ellipse_22" data-name="Ellipse 22" cx="5.509" cy="0.931" rx="5.509" ry="0.931" transform="translate(34.438 169.914)" fill="#ff6f00" opacity="0.1"/>
    <ellipse id="Ellipse_23" data-name="Ellipse 23" cx="8.226" cy="1.391" rx="8.226" ry="1.391" transform="translate(156.508 166.796)" fill="#ff6f00"/>
    <path id="Path_1002" data-name="Path 1002" d="M887.5,826.418a2.4,2.4,0,0,0,.784-1.185,1.056,1.056,0,0,0-.548-1.2c-.5-.192-1.041.157-1.448.509a1.934,1.934,0,0,1-1.41.679,2.144,2.144,0,0,0,.665-2.007.845.845,0,0,0-.186-.409c-.278-.3-.786-.172-1.119.065a4.172,4.172,0,0,0-1.367,3.492,6.573,6.573,0,0,1-.021-1.432,1.479,1.479,0,0,0-.54-1.274,1.624,1.624,0,0,0-.818-.192,1.7,1.7,0,0,0-1.338.38,1.319,1.319,0,0,0,.053,1.637,5.207,5.207,0,0,0,1.385,1.109,3.07,3.07,0,0,1,.988.943.852.852,0,0,1,.074.17h2.989A8.4,8.4,0,0,0,887.5,826.418Z" transform="translate(-719.361 -660.506)" fill="#ff6f00"/>
    <path id="Path_1003" data-name="Path 1003" d="M279.85,753.45s1.125,1.471-.518,3.682-3,4.092-2.455,5.477c0,0,2.48-4.122,4.5-4.18S282.07,755.93,279.85,753.45Z" transform="translate(-239.619 -605.482)" fill="#ff6f00"/>
    <path id="Path_1004" data-name="Path 1004" d="M280.108,753.45a1.807,1.807,0,0,1,.229.462c1.968,2.312,3.018,4.47,1.125,4.523-1.761.051-3.875,3.2-4.382,4,.016.061.037.121.059.182,0,0,2.479-4.122,4.5-4.18S282.328,755.93,280.108,753.45Z" transform="translate(-239.876 -605.482)" opacity="0.1"/>
    <path id="Path_1005" data-name="Path 1005" d="M301.088,761.322c0,.518-.057.937-.129.937s-.129-.419-.129-.937.072-.274.143-.274S301.088,760.8,301.088,761.322Z" transform="translate(-258.767 -611.479)" fill="#ffd037"/>
    <path id="Path_1006" data-name="Path 1006" d="M302.155,764.247c-.454.248-.851.4-.884.333s.3-.315.759-.563.276-.068.309,0S302.609,764,302.155,764.247Z" transform="translate(-259.116 -613.787)" fill="#ffd037"/>
    <path id="Path_1007" data-name="Path 1007" d="M253.047,753.45s-1.125,1.471.518,3.682,3,4.092,2.455,5.477c0,0-2.477-4.122-4.5-4.18S250.823,755.93,253.047,753.45Z" transform="translate(-218.75 -605.482)" fill="#ff6f00"/>
    <path id="Path_1008" data-name="Path 1008" d="M253.029,753.45a1.841,1.841,0,0,0-.231.462c-1.968,2.312-3.016,4.47-1.125,4.523,1.763.051,3.877,3.2,4.384,4a1.589,1.589,0,0,1-.061.182s-2.477-4.122-4.5-4.18S250.805,755.93,253.029,753.45Z" transform="translate(-218.732 -605.482)" opacity="0.1"/>
    <path id="Path_1009" data-name="Path 1009" d="M252.65,761.322c0,.518.059.937.131.937s.129-.419.129-.937-.072-.274-.143-.274S252.65,760.8,252.65,761.322Z" transform="translate(-220.444 -611.479)" fill="#ffd037"/>
    <path id="Path_1010" data-name="Path 1010" d="M248.074,764.247c.454.248.849.4.884.333s-.307-.315-.761-.563-.274-.068-.309,0S247.619,764,248.074,764.247Z" transform="translate(-216.583 -613.787)" fill="#ffd037"/>
    <path id="Path_1011" data-name="Path 1011" d="M254.4,790.705s3.142-.1,4.092-.771,4.834-1.481,5.068-.4,4.724,5.378,1.176,5.407-8.245-.552-9.19-1.127S254.4,790.705,254.4,790.705Z" transform="translate(-221.836 -633.764)" fill="#a8a8a8"/>
    <path id="Path_1012" data-name="Path 1012" d="M264.8,801.155c-3.547.029-8.245-.552-9.19-1.127-.718-.44-1.007-2.013-1.1-2.737h-.1s.2,2.533,1.144,3.11,5.642,1.156,9.19,1.127c1.023,0,1.377-.372,1.358-.912C265.949,800.946,265.558,801.148,264.8,801.155Z" transform="translate(-221.836 -640.353)" opacity="0.2"/>
  </g>
</svg>
