<svg xmlns="http://www.w3.org/2000/svg" xmlns:xlink="http://www.w3.org/1999/xlink" width="204.437" height="240.33" viewBox="0 0 204.437 240.33">
  <defs>
    <clipPath id="clip-path">
      <rect width="204.437" height="240.33" fill="none"/>
    </clipPath>
  </defs>
  <g id="undraw_Choose_bwbs" clip-path="url(#clip-path)">
    <path id="Path_1097" data-name="Path 1097" d="M491.926,104.983l-19.564-5.915-1.2,26.754,20.589,6.206Z" transform="translate(-301.278 -63.348)" fill="#f5f5f5"/>
    <path id="Path_1098" data-name="Path 1098" d="M146.808,0V27.223L263.756,62.473l1.2-26.754Z" transform="translate(-93.875)" fill="#f5f5f5"/>
    <path id="Path_1099" data-name="Path 1099" d="M491.926,104.983l-19.564-5.915-1.2,26.754,20.589,6.206Z" transform="translate(-301.278 -63.348)" opacity="0.1"/>
    <path id="Path_1100" data-name="Path 1100" d="M491.926,247.1l-19.564-5.915-1.2,26.754,20.589,6.206Z" transform="translate(-301.278 -154.225)" fill="#3ad29f"/>
    <path id="Path_1101" data-name="Path 1101" d="M146.808,142.12v27.223l116.948,35.251,1.2-26.754Z" transform="translate(-93.875 -90.877)" fill="#3ad29f"/>
    <path id="Path_1102" data-name="Path 1102" d="M491.926,247.1l-19.564-5.915-1.2,26.754,20.589,6.206Z" transform="translate(-301.278 -154.225)" opacity="0.1"/>
    <path id="Path_1103" data-name="Path 1103" d="M488.291,278.067l3.2,4.8,6.405-8.007" transform="translate(-312.233 -175.759)" fill="none" stroke="#fff" stroke-linecap="round" stroke-miterlimit="10" stroke-width="7"/>
    <g id="Group_295" data-name="Group 295" transform="translate(176.236 46.261)" opacity="0.4">
      <line id="Line_4" data-name="Line 4" x2="6.405" y2="11.209" fill="none" stroke="#fff" stroke-linecap="round" stroke-miterlimit="10" stroke-width="7"/>
      <line id="Line_5" data-name="Line 5" x1="8.007" y2="8.007" transform="translate(0 1.601)" fill="none" stroke="#fff" stroke-linecap="round" stroke-miterlimit="10" stroke-width="7"/>
    </g>
    <path id="Path_1104" data-name="Path 1104" d="M491.926,380.341l-19.564-5.915-1.2,26.754,20.589,6.206Z" transform="translate(-301.278 -239.423)" fill="#f5f5f5"/>
    <path id="Path_1105" data-name="Path 1105" d="M146.808,275.358v27.223l116.948,35.251,1.2-26.754Z" transform="translate(-93.875 -176.075)" fill="#f5f5f5"/>
    <path id="Path_1106" data-name="Path 1106" d="M491.926,380.341l-19.564-5.915-1.2,26.754,20.589,6.206Z" transform="translate(-301.278 -239.423)" opacity="0.1"/>
    <g id="Group_296" data-name="Group 296" transform="translate(176.236 145.544)" opacity="0.4">
      <line id="Line_6" data-name="Line 6" x2="6.405" y2="11.209" fill="none" stroke="#fff" stroke-linecap="round" stroke-miterlimit="10" stroke-width="7"/>
      <line id="Line_7" data-name="Line 7" x1="8.007" y2="8.007" transform="translate(0 1.601)" fill="none" stroke="#fff" stroke-linecap="round" stroke-miterlimit="10" stroke-width="7"/>
    </g>
    <ellipse id="Ellipse_37" data-name="Ellipse 37" cx="4.003" cy="8.007" rx="4.003" ry="8.007" transform="translate(129.797 79.889)" opacity="0.3"/>
    <ellipse id="Ellipse_38" data-name="Ellipse 38" cx="33.628" cy="67.256" rx="33.628" ry="67.256" transform="translate(100.173 20.639)" fill="#ff6f00" opacity="0.1"/>
    <ellipse id="Ellipse_39" data-name="Ellipse 39" cx="18.415" cy="36.831" rx="18.415" ry="36.831" transform="translate(115.385 51.065)" fill="#fff" opacity="0.1"/>
    <g id="Group_297" data-name="Group 297" transform="translate(0 39.767)" opacity="0.5">
      <rect id="Rectangle_190" data-name="Rectangle 190" width="0.534" height="3.025" transform="translate(1.245)" fill="#47e6b1"/>
      <rect id="Rectangle_191" data-name="Rectangle 191" width="0.534" height="3.025" transform="translate(3.025 1.245) rotate(90)" fill="#47e6b1"/>
    </g>
    <g id="Group_298" data-name="Group 298" transform="translate(189.294 187.236)" opacity="0.5">
      <rect id="Rectangle_192" data-name="Rectangle 192" width="0.534" height="3.025" transform="translate(1.245)" fill="#47e6b1"/>
      <rect id="Rectangle_193" data-name="Rectangle 193" width="0.534" height="3.025" transform="translate(3.025 1.245) rotate(90)" fill="#47e6b1"/>
    </g>
    <g id="Group_299" data-name="Group 299" transform="translate(176.147 123.036)" opacity="0.5">
      <rect id="Rectangle_194" data-name="Rectangle 194" width="0.534" height="3.025" transform="translate(1.245)" fill="#47e6b1"/>
      <rect id="Rectangle_195" data-name="Rectangle 195" width="0.534" height="3.025" transform="translate(3.025 1.245) rotate(90)" fill="#47e6b1"/>
    </g>
    <g id="Group_300" data-name="Group 300" transform="translate(153.373 184.599)" opacity="0.5">
      <rect id="Rectangle_196" data-name="Rectangle 196" width="0.534" height="3.025" transform="translate(1.245)" fill="#47e6b1"/>
      <rect id="Rectangle_197" data-name="Rectangle 197" width="0.534" height="3.025" transform="translate(3.025 1.245) rotate(90)" fill="#47e6b1"/>
    </g>
    <g id="Group_301" data-name="Group 301" transform="translate(137.359 223.209)" opacity="0.5">
      <rect id="Rectangle_198" data-name="Rectangle 198" width="0.534" height="3.025" transform="translate(1.245)" fill="#47e6b1"/>
      <rect id="Rectangle_199" data-name="Rectangle 199" width="0.534" height="3.025" transform="translate(3.025 1.245) rotate(90)" fill="#47e6b1"/>
    </g>
    <g id="Group_302" data-name="Group 302" transform="translate(22.775 86.561)" opacity="0.5">
      <rect id="Rectangle_200" data-name="Rectangle 200" width="0.534" height="3.025" transform="translate(1.245)" fill="#47e6b1"/>
      <rect id="Rectangle_201" data-name="Rectangle 201" width="0.534" height="3.025" transform="translate(3.025 1.245) rotate(90)" fill="#47e6b1"/>
    </g>
    <path id="Path_1107" data-name="Path 1107" d="M402.284,224.035a.654.654,0,0,1-.364-.79.314.314,0,0,0,.014-.073h0a.328.328,0,0,0-.589-.217h0a.314.314,0,0,0-.036.064.654.654,0,0,1-.79.364.314.314,0,0,0-.072-.014h0a.328.328,0,0,0-.217.589h0a.316.316,0,0,0,.064.036.654.654,0,0,1,.364.79.314.314,0,0,0-.014.072h0a.328.328,0,0,0,.589.217h0a.318.318,0,0,0,.036-.064.654.654,0,0,1,.79-.364.315.315,0,0,0,.073.014h0a.328.328,0,0,0,.217-.589h0A.315.315,0,0,0,402.284,224.035Z" transform="translate(-369.956 -184.57)" fill="#4d8af0" opacity="0.5"/>
    <path id="Path_1108" data-name="Path 1108" d="M735.476,149.842a.654.654,0,0,1-.364-.79.316.316,0,0,0,.014-.073h0a.328.328,0,0,0-.589-.217h0a.312.312,0,0,0-.036.064.654.654,0,0,1-.79.364.314.314,0,0,0-.073-.014h0a.328.328,0,0,0-.217.589h0a.312.312,0,0,0,.064.036.654.654,0,0,1,.364.79.312.312,0,0,0-.014.073h0a.328.328,0,0,0,.589.217h0a.318.318,0,0,0,.036-.064.654.654,0,0,1,.79-.364.315.315,0,0,0,.073.014h0a.328.328,0,0,0,.217-.589h0A.315.315,0,0,0,735.476,149.842Z" transform="translate(-583.012 -137.128)" fill="#4d8af0" opacity="0.5"/>
    <path id="Path_1109" data-name="Path 1109" d="M325.893,413.85a.654.654,0,0,1-.364-.79.315.315,0,0,0,.014-.072h0a.328.328,0,0,0-.589-.217h0a.315.315,0,0,0-.036.064.654.654,0,0,1-.79.364.315.315,0,0,0-.073-.014h0a.328.328,0,0,0-.217.589h0a.313.313,0,0,0,.064.036.654.654,0,0,1,.364.79.319.319,0,0,0-.014.073h0a.328.328,0,0,0,.589.217h0a.311.311,0,0,0,.036-.064.654.654,0,0,1,.79-.364.315.315,0,0,0,.073.014h0a.328.328,0,0,0,.217-.589h0a.315.315,0,0,0-.064-.036Z" transform="translate(-321.109 -305.945)" fill="#4d8af0" opacity="0.5"/>
    <path id="Path_1110" data-name="Path 1110" d="M339.217,600.383a.654.654,0,0,1-.364-.79.312.312,0,0,0,.014-.073h0a.328.328,0,0,0-.589-.217h0a.314.314,0,0,0-.036.064.654.654,0,0,1-.79.364.315.315,0,0,0-.073-.014h0a.328.328,0,0,0-.217.589h0a.317.317,0,0,0,.064.036.654.654,0,0,1,.364.79.316.316,0,0,0-.014.073h0a.328.328,0,0,0,.589.217h0a.317.317,0,0,0,.036-.064.654.654,0,0,1,.79-.364.313.313,0,0,0,.073.014h0a.328.328,0,0,0,.217-.589h0a.316.316,0,0,0-.064-.036Z" transform="translate(-329.628 -425.222)" fill="#4d8af0" opacity="0.5"/>
    <circle id="Ellipse_40" data-name="Ellipse 40" cx="1.068" cy="1.068" r="1.068" transform="translate(88.607 47.417)" fill="#f55f44" opacity="0.5"/>
    <circle id="Ellipse_41" data-name="Ellipse 41" cx="1.068" cy="1.068" r="1.068" transform="translate(117.431 186.734)" fill="#4d8af0" opacity="0.5"/>
    <circle id="Ellipse_42" data-name="Ellipse 42" cx="1.068" cy="1.068" r="1.068" transform="translate(183.086 76.241)" fill="#4d8af0" opacity="0.5"/>
    <circle id="Ellipse_43" data-name="Ellipse 43" cx="1.068" cy="1.068" r="1.068" transform="translate(202.302 124.282)" fill="#47e6b1" opacity="0.5"/>
    <circle id="Ellipse_44" data-name="Ellipse 44" cx="1.068" cy="1.068" r="1.068" transform="translate(130.776 3.114)" fill="#f55f44" opacity="0.5"/>
    <rect id="Rectangle_202" data-name="Rectangle 202" width="8.02" height="10.311" transform="translate(85.506 60.383) rotate(-177.779)" fill="#ff6f00"/>
    <path id="Path_1111" data-name="Path 1111" d="M632.318,350.253s11.1-5.3,10.92-.723-11.186,7.592-11.186,7.592Z" transform="translate(-518.276 -264.399)" fill="#ffb9b9"/>
    <path id="Path_1112" data-name="Path 1112" d="M534.24,451.432s5.236,12.815,7.17,22.062,4.881,21.973,1.091,31-14.564,35.551-14.675,38.413.923,5.768-1.367,5.68-14.749-4.011-15.255-5.751,4.251-6.141,4.251-6.141L527.2,499.886l-12.255-23.979-8.84,35.773-1.731,44.648s-8.5-2.623-9.731-.377c0,0-3.807-5.307-4.291-7.619s1.8-46.365,1.8-46.365-7.8-50.177-1.5-49.932S521.608,437.183,534.24,451.432Z" transform="translate(-426.288 -326.832)" fill="#ff6f00"/>
    <path id="Path_1113" data-name="Path 1113" d="M563.114,718.405s5.808,12.837,6.358,13.432,4.335,6.474,1.473,6.363-9.62-3.239-14.594-8.018-11.532-13.059-10.938-13.609a33.778,33.778,0,0,1,4.668-2.112Z" transform="translate(-462.852 -498.942)" fill="#575a89"/>
    <path id="Path_1114" data-name="Path 1114" d="M510.792,743.324s.35,5.746,1.406,8.08.923,5.768-1.939,5.657S500,755.517,500,755.517s-.439-3.457.155-4.007,3.128-6.758,2.05-8.519S510.792,743.324,510.792,743.324Z" transform="translate(-433.738 -516.734)" fill="#575a89"/>
    <path id="Path_1115" data-name="Path 1115" d="M502.519,227.981s-6.1,9.509-8.48,11.71,4.313,7.046,4.313,7.046l11.976,1.611s-.151-10.9.466-12.02S502.519,227.981,502.519,227.981Z" transform="translate(-429.699 -187.868)" fill="#ffb9b9"/>
    <path id="Path_1116" data-name="Path 1116" d="M505.981,257.844s-2.467,4.49-4.757,4.4-14.133-5.134-14.638-6.874-3.923,12.46-3.923,12.46l28.979,51,7.069-4.885L515.286,284l-2.813-16.161Z" transform="translate(-422.752 -205.288)" fill="#ff6f00"/>
    <path id="Path_1117" data-name="Path 1117" d="M469.464,297.375a16.036,16.036,0,0,1,1.778,7.521c0,.114-.009.229-.019.343-.274,5.3-2.226,11.425-2.926,15.881-.508,3.2-.363,5.529,1.507,6.078,4.535,1.322-.661,2.267,16.884,8.107s20.607.8,20.651-.346-2.485-9.842-1.89-10.392,8.32,7.2,10.654,6.146.266-6.869.266-6.869-5.258-12.242-5.147-15.1-7.965-16.36-7.965-16.36l-5.493-35.755s-2.112-4.668-4.952-5.351a7.035,7.035,0,0,0-5.2.945l4.752,10.5,5.014,18.539-.839,6.847s-5.83-12.265-9.66-17-11.994-15.943-11.994-15.943-1.906-6.431-.467-8.353-6-2.216-9.175,5.686c-1.682,4.188-4.412,10.434-6.122,16.25-1.524,5.152-2.244,9.968-.734,12.721C460.7,285.673,466.5,291.2,469.464,297.375Z" transform="translate(-406.698 -199.178)" fill="#575a89"/>
    <path id="Path_1118" data-name="Path 1118" d="M458.392,319.871c2.308,4.206,8.113,9.733,11.072,15.908.773-2.785,1.716-5.666,1.716-5.666s3.617-19.351-7.081-24.352a7.16,7.16,0,0,0-4.973,1.389C457.6,312.3,456.882,317.118,458.392,319.871Z" transform="translate(-406.698 -237.581)" opacity="0.1"/>
    <path id="Path_1119" data-name="Path 1119" d="M576.084,341.572l9.07,2.645,12.593.488,1.3,10.942-20.7,1.49S573.178,342.606,576.084,341.572Z" transform="translate(-481.922 -260.502)" fill="#575a89"/>
    <path id="Path_1120" data-name="Path 1120" d="M529.272,443.612s12.133,2.013,9.364,5.664-13.518-.187-13.518-.187Z" transform="translate(-449.899 -325.75)" fill="#ffb9b9"/>
    <path id="Path_1121" data-name="Path 1121" d="M490.267,410.885c-.274,5.3-2.226,11.425-2.926,15.881,3.865,3.658,7.541,6.885,8.926,6.939,2.862.111,7.463-.284,9.158.355s2.689-10.215,2.689-10.215a9.387,9.387,0,0,0-5.524-5.374A62.852,62.852,0,0,1,490.267,410.885Z" transform="translate(-425.743 -304.824)" opacity="0.1"/>
    <path id="Path_1122" data-name="Path 1122" d="M459.78,296.226s-9.686-1.522-9.163,14.55-1.021,26.331,2.875,29.348,16.551,16.693,19.413,16.8,7.463-.284,9.158.355,2.689-10.215,2.689-10.215a9.387,9.387,0,0,0-5.524-5.374c-4.513-1.895-15.144-8.613-15.055-10.9s2.689-10.214,2.689-10.214S470.478,301.227,459.78,296.226Z" transform="translate(-402.247 -231.481)" fill="#575a89"/>
    <circle id="Ellipse_45" data-name="Ellipse 45" cx="12.602" cy="12.602" r="12.602" transform="translate(68.76 28.989)" fill="#ffb9b9"/>
    <path id="Path_1123" data-name="Path 1123" d="M525.113,177.47a2.434,2.434,0,0,0,1.06.532.756.756,0,0,0,.876-.607,3.141,3.141,0,0,0,1.2,1.542c.589.307,1.5.05,1.584-.609a2.778,2.778,0,0,0,.64,1.35.958.958,0,0,0,1.346.045,34.6,34.6,0,0,0-.18,4.288A5.459,5.459,0,0,1,530.1,187.9c-1.576,1.371-3.945,1.033-6.017.773a1.827,1.827,0,0,0-.943.052c-.776.331-.741,1.411-.751,2.254a6.264,6.264,0,0,1-5.485,5.948,3.14,3.14,0,0,1-2.334-.57c-.589-.5-.889-1.312-1.563-1.686-1.1-.609-2.427.279-3.229,1.245s-1.592,2.152-2.835,2.329c-1.643.234-2.894-1.441-3.508-2.983a17.387,17.387,0,0,1,.346-13.51C507.209,174.27,518.929,173.087,525.113,177.47Z" transform="translate(-435.266 -153.941)" fill="#2f2e41"/>
  </g>
</svg>
