<svg xmlns="http://www.w3.org/2000/svg" xmlns:xlink="http://www.w3.org/1999/xlink" width="255.677" height="179.011" viewBox="0 0 255.677 179.011">
  <defs>
    <clipPath id="clip-path">
      <rect width="255.677" height="179.011" fill="none"/>
    </clipPath>
  </defs>
  <g id="undraw_task_31wc" clip-path="url(#clip-path)">
    <path id="Path_1071" data-name="Path 1071" d="M909.154,336.9c0,25.028-14.879,33.766-33.232,33.766s-33.232-8.739-33.232-33.766,33.232-56.867,33.232-56.867S909.154,311.87,909.154,336.9Z" transform="translate(-656.368 -231.484)" fill="#f2f2f2"/>
    <path id="Path_1072" data-name="Path 1072" d="M864,288.263l.34-20.946L878.505,241.4l-14.111,22.627.153-9.418,9.762-18.748-9.721,16.256h0l.275-16.939,10.454-14.925-10.41,12.262.172-31.06L864,242.576l.089-1.7-10.628-16.268,10.458,19.524-.99,18.918-.029-.5-12.252-17.119,12.215,18.894-.124,2.366-.022.036.01.194-2.512,48h3.357l.4-24.791,12.185-18.847Z" transform="translate(-645.658 -152.912)" fill="#3f3d56"/>
    <path id="Path_1073" data-name="Path 1073" d="M560.9,189.829c0,32.369-19.243,43.671-42.98,43.671s-42.98-11.3-42.98-43.671,42.98-73.547,42.98-73.547S560.9,157.46,560.9,189.829Z" transform="translate(-377.24 -107.194)" fill="#f2f2f2"/>
    <path id="Path_1074" data-name="Path 1074" d="M522.891,149.976l.44-27.09,18.319-33.514L523.4,118.636l.2-12.181,12.625-24.247-12.573,21.024h0l.356-21.908,13.52-19.3L524.063,77.88l.222-40.171-1.4,53.179L523,88.694l-13.746-21.04,13.525,25.251L521.5,117.372l-.038-.649L505.617,94.582l15.8,24.436-.16,3.06-.029.046.013.251-3.249,62.075h4.341l.521-32.063,15.759-24.376Z" transform="translate(-383.775 -28.622)" fill="#3f3d56"/>
    <path id="Path_1075" data-name="Path 1075" d="M319.627,730.862c0,2.436-7.08,4.711-19.312,6.627-22.165,3.475-61.244,5.781-105.753,5.781-69.069,0-125.062-5.554-125.062-12.408,0-.947,1.075-1.875,3.111-2.762a53.351,53.351,0,0,1,10.4-2.856c9.449-1.844,23.409-3.42,40.436-4.591,19.765-1.357,43.667-2.164,69.452-2.2q.828,0,1.66,0,4.659,0,9.237.034,2.151.014,4.282.039c15.186.161,29.558.593,42.619,1.243l1.742.089.593.031c.053,0,.106,0,.159.01q3.85.2,7.531.431,1.207.072,2.393.152c7.68.5,14.769,1.08,21.146,1.733q1.634.166,3.205.34c8.068.884,14.861,1.889,20.1,2.981C315.3,727.151,319.627,728.956,319.627,730.862Z" transform="translate(-69.5 -564.259)" fill="#3f3d56"/>
    <ellipse id="Ellipse_35" data-name="Ellipse 35" cx="27.25" cy="6.314" rx="27.25" ry="6.314" transform="translate(154.197 159.514)" opacity="0.1"/>
    <path id="Path_1076" data-name="Path 1076" d="M997.344,753.171c0,2.436-7.08,4.711-19.312,6.627-9.249-1.01-15.651-3.191-15.651-5.716,0-3.145,9.919-5.752,22.9-6.234C993.016,749.46,997.344,751.265,997.344,753.171Z" transform="translate(-747.216 -586.568)" opacity="0.1"/>
    <path id="Path_1077" data-name="Path 1077" d="M214.884,734.26c0,4.161-29.659,7.533-66.243,7.533-36.241,0-65.684-3.308-66.234-7.415,7.034-3.071,25.553-5.707,50.838-7.446,4.941-.133,10.1-.2,15.4-.2C185.226,726.728,214.884,730.1,214.884,734.26Z" transform="translate(-79.297 -570.537)" opacity="0.1"/>
    <rect id="Rectangle_172" data-name="Rectangle 172" width="109.887" height="164.609" transform="translate(13.514)" fill="#3f3d56"/>
    <rect id="Rectangle_173" data-name="Rectangle 173" width="103.241" height="50.513" transform="translate(20.161 57.159)" fill="#2f2e41"/>
    <rect id="Rectangle_174" data-name="Rectangle 174" width="102.133" height="48.076" transform="translate(61.812 58.267)" fill="#3f3d56"/>
    <rect id="Rectangle_175" data-name="Rectangle 175" width="22.819" height="8.197" transform="translate(68.07 65.356)" fill="#ff6f00"/>
    <rect id="Rectangle_176" data-name="Rectangle 176" width="83.966" height="2.215" transform="translate(73.72 79.757)" fill="#ff6f00"/>
    <rect id="Rectangle_177" data-name="Rectangle 177" width="83.966" height="2.215" transform="translate(73.72 85.517)" fill="#ff6f00"/>
    <rect id="Rectangle_178" data-name="Rectangle 178" width="83.966" height="2.215" transform="translate(73.72 91.277)" fill="#ff6f00"/>
    <rect id="Rectangle_179" data-name="Rectangle 179" width="83.966" height="2.215" transform="translate(73.72 97.038)" fill="#ff6f00"/>
    <rect id="Rectangle_180" data-name="Rectangle 180" width="22.819" height="8.197" transform="translate(20.825 18.61)" fill="#f2f2f2"/>
    <rect id="Rectangle_181" data-name="Rectangle 181" width="83.966" height="2.215" transform="translate(26.475 33.01)" fill="#f2f2f2"/>
    <rect id="Rectangle_182" data-name="Rectangle 182" width="83.966" height="2.215" transform="translate(26.475 38.771)" fill="#f2f2f2"/>
    <rect id="Rectangle_183" data-name="Rectangle 183" width="83.966" height="2.215" transform="translate(26.475 44.531)" fill="#f2f2f2"/>
    <rect id="Rectangle_184" data-name="Rectangle 184" width="83.966" height="2.215" transform="translate(26.475 50.291)" fill="#f2f2f2"/>
    <rect id="Rectangle_185" data-name="Rectangle 185" width="22.819" height="8.197" transform="translate(21.712 112.767)" fill="#f2f2f2"/>
    <rect id="Rectangle_186" data-name="Rectangle 186" width="83.966" height="2.215" transform="translate(27.361 127.168)" fill="#f2f2f2"/>
    <rect id="Rectangle_187" data-name="Rectangle 187" width="83.966" height="2.215" transform="translate(27.361 132.928)" fill="#f2f2f2"/>
    <rect id="Rectangle_188" data-name="Rectangle 188" width="83.966" height="2.215" transform="translate(27.361 138.688)" fill="#f2f2f2"/>
    <rect id="Rectangle_189" data-name="Rectangle 189" width="83.966" height="2.215" transform="translate(27.361 144.449)" fill="#f2f2f2"/>
    <path id="Path_1078" data-name="Path 1078" d="M792.563,197s4.555,5.837,3.986,9.965,9.4-5.694,9.4-5.694-3.416-7.118-1.566-10.534S792.563,197,792.563,197Z" transform="translate(-618.321 -163.155)" fill="#ffb9b9"/>
    <path id="Path_1079" data-name="Path 1079" d="M801.955,709.342s5.979,6.548,4.982,7.972-18.506,6.833-20.5,6.548-2.989-1.708-2.278-2.135,5.267-2.847,5.267-2.847l3.844-4.413s2.847-1.566,2.847-2.42S801.955,709.342,801.955,709.342Z" transform="translate(-611.77 -557.341)" fill="#2f2e41"/>
    <path id="Path_1080" data-name="Path 1080" d="M808.113,739.469s-2.278,3.7-2.7,3.843,2.135,5.267,2.135,5.267l5.979-1.851,3.274-2.7-.712-3.7Z" transform="translate(-628.034 -580.208)" fill="#ffb9b9"/>
    <path id="Path_1081" data-name="Path 1081" d="M765.383,446.464l-2.847,12.669s-9.822,22.065-2.989,25.908l14.947,28.613,7.972-3.559-13.381-29.325,6.121-33.738Z" transform="translate(-591.426 -357.811)" fill="#d0cde1"/>
    <path id="Path_1082" data-name="Path 1082" d="M765.383,446.464l-2.847,12.669s-9.822,22.065-2.989,25.908l14.947,28.613,7.972-3.559-13.381-29.325,6.121-33.738Z" transform="translate(-591.426 -357.811)" opacity="0.1"/>
    <path id="Path_1083" data-name="Path 1083" d="M790.883,452.044h-1.444a80.487,80.487,0,0,0,.733,13.1c1,7.26,3.559,23.915,3.559,23.915s-.285,3.132.569,4.128,1-.285,1.139,1.993,1.495,18.113,1.495,18.113.925,3.24-.071,3.951-2.989,4.555-1.566,5.125,11.246,1.281,11.673.854,0-27.19,0-27.19-.285-5.409-.569-5.694-1.566-4.128-1.139-4.982.142-3.417.142-3.844-1.281,0-.142-1.851,1.281-16.655,1.281-16.655,6.121-9.4,4.271-11.815Z" transform="translate(-615.93 -361.398)" fill="#d0cde1"/>
    <circle id="Ellipse_36" data-name="Ellipse 36" cx="9.395" cy="9.395" r="9.395" transform="translate(168.832 17.192)" fill="#ffb9b9"/>
    <path id="Path_1084" data-name="Path 1084" d="M798.6,230.255s-5.694,1.424-7.972,4.84l-1.993.427v1.993s-3.7,11.815-2.847,16.94,0,15.09-1.424,17.794-1.851,3.274-1.139,4.413,1.708,4.982,1,6.691,0,3.416,6.548,3.844,15.8.427,15.8-1.851-.569-8.684,0-10.392a8.1,8.1,0,0,0,.569-4.413c-.285-1.566.569-19.075.569-19.075S807.855,233.956,798.6,230.255Z" transform="translate(-610.979 -193.703)" fill="#ff6f00"/>
    <path id="Path_1085" data-name="Path 1085" d="M749.257,412.792l-7.829,11.673s-8.257,7.545-5.267,10.961,10.819-9.965,10.819-9.965l8.541-9.68Z" transform="translate(-575.016 -332.253)" fill="#ffb9b9"/>
    <path id="Path_1086" data-name="Path 1086" d="M765.476,752.544s-.285-1.851-1.281-1.851-7.687,4.555-7.687,4.555-8.826,1-5.41,2.847,24.343,2.135,24.485,1.423.427-7.731-.57-7.709-8.968,1.588-8.968,1.588Z" transform="translate(-586.252 -588.728)" fill="#2f2e41"/>
    <path id="Path_1087" data-name="Path 1087" d="M779.944,136.4a2.356,2.356,0,0,1-1.074.243c-.384.022-.842,0-1.047-.328a1.5,1.5,0,0,1-.131-.684,2.252,2.252,0,0,0-2.632-1.918,3.241,3.241,0,0,0,.419,1.336,2.857,2.857,0,0,1-2.511-.334l-.145,1.918a1.565,1.565,0,0,1-1.61-.054.892.892,0,0,1,.023-1.427c-.622-.13-1.383-.409-1.429-1.042-.042-.578.572-1,.685-1.571.092-.464-.162-.968.018-1.406.236-.575,1.095-.722,1.267-1.319a5.168,5.168,0,0,0-.008-.944c.079-.825,1.116-1.167,1.943-1.12a4.109,4.109,0,0,0,2.433-.172,7.054,7.054,0,0,0,.878-.821,2.608,2.608,0,0,1,3.029-.263,5.145,5.145,0,0,0,.994.619c.759.257,1.552-.23,2.345-.342a1.949,1.949,0,0,1,1.634.473,1.337,1.337,0,0,1,.243,1.611,2.619,2.619,0,0,1,1.4.02.9.9,0,0,1,.571,1.126,1.457,1.457,0,0,0-.177.362c-.041.248.2.46.439.531s.5.058.739.144c.976.357.742,1.917,1.51,2.617a6.12,6.12,0,0,0,.833.509,2.026,2.026,0,0,1,.714,2.447,2.244,2.244,0,0,0-.381,1.039c.044.523.6.809,1,1.157a2.319,2.319,0,0,1,.54,2.663c-.361.754-1.144,1.325-1.223,2.157-.035.362.074.723.068,1.086a2.237,2.237,0,0,1-.962,1.69,5,5,0,0,1-1.847.768c-.31.074-.681.191-.756.5-.089.368.321.7.279,1.078a.625.625,0,0,1-.251.406,1.277,1.277,0,0,1-1.774-.556,3.7,3.7,0,0,1-.243-2.07l.191-2.556c.06-.8.054-1.74-.595-2.2-.717-.514-1.761-.1-2.571-.445a2.356,2.356,0,0,1-1.114-2.338,13.689,13.689,0,0,0,.146-2.744c-.188-1.123-1.187-1.878-2.2-1.15C780.491,134.97,780.645,135.988,779.944,136.4Z" transform="translate(-601.048 -114.666)" fill="#2f2e41"/>
    <path id="Path_1088" data-name="Path 1088" d="M803,258.369s-5.694,2.278-5.694,7.118.285,11.246-.712,13.381-1.851,2.847-1.281,4.555,1.566,1.424,0,2.7-1.423-.854-1.566,1.281,1.424,2.42,0,3.416-5.125,4.982-3.559,6.264,5.694,5.409,7.118,3.844,2.135-5.552,4.128-5.267,2.278.427,1.993-1-1.566-1.424.142-1.851,2.42.569,1.851-.854-1-1.993.142-3.559,1.708-1.993,1.566-3.559,3.132-15.659,3.132-15.659S811.256,257.231,803,258.369Z" transform="translate(-616.231 -214.984)" opacity="0.1"/>
    <path id="Path_1089" data-name="Path 1089" d="M796.5,257.188s-5.694,2.278-5.694,7.118.285,11.246-.712,13.381-1.851,2.847-1.281,4.555,1.566,1.424,0,2.7-1.424-.854-1.566,1.281,1.424,2.42,0,3.417-5.125,4.982-3.559,6.264,5.694,5.409,7.118,3.844,2.135-5.552,4.128-5.267,2.278.427,1.993-1-1.566-1.424.142-1.851,2.42.569,1.851-.854-1-1.993.142-3.559,1.708-1.993,1.566-3.559,3.132-15.659,3.132-15.659S804.758,256.049,796.5,257.188Z" transform="translate(-611.298 -214.088)" opacity="0.1"/>
    <path id="Path_1090" data-name="Path 1090" d="M799.455,255.416s-5.694,2.278-5.694,7.118.285,11.246-.712,13.381-1.851,2.847-1.281,4.555,1.566,1.423,0,2.7-1.423-.854-1.566,1.281,1.423,2.42,0,3.417-5.125,4.982-3.559,6.264,5.694,5.409,7.118,3.844,2.135-5.552,4.128-5.267,2.278.427,1.993-1-1.566-1.424.142-1.851,2.42.569,1.851-.854-1-1.993.142-3.559,1.708-1.993,1.566-3.559,3.132-15.659,3.132-15.659S807.711,254.277,799.455,255.416Z" transform="translate(-613.54 -212.742)" fill="#ff6f00"/>
    <path id="Path_1091" data-name="Path 1091" d="M964.5,663.787c0,12.455,7.813,22.533,17.469,22.533" transform="translate(-748.825 -522.764)" fill="#2f2e41"/>
    <path id="Path_1092" data-name="Path 1092" d="M1036.994,685.522c0-12.595,8.719-22.786,19.495-22.786" transform="translate(-803.85 -521.966)" fill="#d8212b"/>
    <path id="Path_1093" data-name="Path 1093" d="M990.766,668.472c0,11.831,4.982,21.4,11.14,21.4" transform="translate(-768.762 -526.32)" fill="#d8212b"/>
    <path id="Path_1094" data-name="Path 1094" d="M1036.994,665.586c0-16.093,10.078-29.116,22.533-29.116" transform="translate(-803.85 -502.03)" fill="#2f2e41"/>
    <path id="Path_1095" data-name="Path 1095" d="M1021.743,753.736s2.477-.076,3.224-.608,3.811-1.167,4-.314,3.723,4.241.926,4.263-6.5-.436-7.244-.89S1021.743,753.736,1021.743,753.736Z" transform="translate(-792.274 -590.021)" fill="#a8a8a8"/>
    <path id="Path_1096" data-name="Path 1096" d="M1029.939,760.987c-2.8.022-6.5-.436-7.244-.89-.567-.346-.794-1.586-.869-2.158l-.083,0s.157,2,.9,2.452,4.447.912,7.244.89c.807-.006,1.087-.294,1.071-.719C1030.848,760.822,1030.54,760.982,1029.939,760.987Z" transform="translate(-792.274 -594.227)" opacity="0.2"/>
  </g>
</svg>
